<?xml version="1.0" encoding="utf-8"?>
<!-- Generator: Adobe Illustrator 24.0.0, SVG Export Plug-In . SVG Version: 6.00 Build 0)  -->
<svg version="1.1" id="Layer_1" xmlns="http://www.w3.org/2000/svg" xmlns:xlink="http://www.w3.org/1999/xlink" x="0px" y="0px"
	 viewBox="0 0 194.2 81.8" style="enable-background:new 0 0 194.2 81.8;" xml:space="preserve">
<style type="text/css">
	.st0{fill:none;stroke:#4091F7;stroke-width:2.8109;stroke-linecap:round;stroke-linejoin:round;stroke-miterlimit:10;}
	.st1{fill:none;stroke:#4091F7;stroke-width:1.6017;stroke-linecap:round;stroke-linejoin:round;stroke-miterlimit:10;}
	.st2{fill:#4091F7;}
	.st3{font-family:'BloggerSans-Medium';}
	.st4{font-size:27.1506px;}
</style>
<path class="st0" d="M44.3,5.3C24,5.3,7.5,21.8,7.5,42.1c0,13.8,7.6,25.8,18.9,32.1V29.3h38.2v43.5c10-6.6,16.5-17.9,16.5-30.7
	C81.1,21.7,64.6,5.3,44.3,5.3z"/>
<rect x="35.2" y="36.3" class="st1" width="7.1" height="7.1"/>
<rect x="48.1" y="36.3" class="st1" width="7.1" height="7.1"/>
<rect x="35.2" y="49.5" class="st1" width="7.1" height="7.1"/>
<rect x="48.1" y="49.5" class="st1" width="7.1" height="7.1"/>
<rect x="35.2" y="62.5" class="st1" width="7.1" height="7.1"/>
<rect x="48.1" y="62.5" class="st1" width="7.1" height="7.1"/>
<text transform="matrix(1 0 0 1 86.4922 49.5294)" class="st2 st3 st4">rigiRoom</text>
</svg>
