<svg id="Layer_1" data-name="Layer 1" xmlns="http://www.w3.org/2000/svg" viewBox="0 0 98.37 42.07"><defs><style>.cls-1{fill:#e9f1fe;}.cls-2{fill:#3377e8;}.cls-3{fill:#fff;}</style></defs><title>logo-origi</title><circle class="cls-1" cx="19.91" cy="16.3" r="14.13"/><circle class="cls-2" cx="26.31" cy="23.83" r="13.43"/><path class="cls-3" d="M17,27a3.07,3.07,0,0,1-1.3-1.19A3.36,3.36,0,0,1,15.26,24a4.86,4.86,0,0,1,.6-2.4,4.43,4.43,0,0,1,1.7-1.71,5,5,0,0,1,2.53-.62,4.52,4.52,0,0,1,2,.42A3,3,0,0,1,23.4,20.9a3.39,3.39,0,0,1,.45,1.76,4.87,4.87,0,0,1-.6,2.41,4.34,4.34,0,0,1-1.7,1.7A5,5,0,0,1,19,27.4,4.49,4.49,0,0,1,17,27Zm3.83-1.32A3,3,0,0,0,22,24.43a3.53,3.53,0,0,0,.4-1.68,2,2,0,0,0-.64-1.58A2.54,2.54,0,0,0,20,20.58a3.16,3.16,0,0,0-1.69.45,3.11,3.11,0,0,0-1.13,1.23,3.59,3.59,0,0,0-.4,1.68,2.06,2.06,0,0,0,.63,1.58,2.5,2.5,0,0,0,1.79.6A3.17,3.17,0,0,0,20.84,25.66Z"/><path class="cls-3" d="M27.76,21.4a4.25,4.25,0,0,1,1.36-.19l-.26,1.34a2.35,2.35,0,0,0-.35,0,2,2,0,0,0-2.08,1.82l-.59,3H24.43l1.19-6H27l-.16.77A2.25,2.25,0,0,1,27.76,21.4Z"/><path class="cls-3" d="M30.29,21.28H31.7l-1.2,6H29.1Zm.42-1.22a.76.76,0,0,1-.24-.56.84.84,0,0,1,.27-.64.9.9,0,0,1,.69-.26.85.85,0,0,1,.61.22.7.7,0,0,1,.23.53A.93.93,0,0,1,32,20a1,1,0,0,1-.7.26A.83.83,0,0,1,30.71,20.06Z"/><path class="cls-3" d="M39.52,21.28l-1,5.09a4.11,4.11,0,0,1-1.24,2.42,3.78,3.78,0,0,1-2.47.76A4.47,4.47,0,0,1,32,28.73l.73-1.06a2.71,2.71,0,0,0,.93.49,4.13,4.13,0,0,0,1.24.18,2.32,2.32,0,0,0,1.49-.42A2.17,2.17,0,0,0,37,26.61l.06-.29a3,3,0,0,1-2,.7,3.12,3.12,0,0,1-1.39-.31,2.25,2.25,0,0,1-1-.87,2.44,2.44,0,0,1-.34-1.31,3.29,3.29,0,0,1,.44-1.68,3.13,3.13,0,0,1,1.22-1.2,3.53,3.53,0,0,1,1.75-.44,3,3,0,0,1,1.27.26,1.86,1.86,0,0,1,.86.8l.19-1Zm-3,4.28a2,2,0,0,0,.73-.73,2.08,2.08,0,0,0,.26-1.06,1.25,1.25,0,0,0-.41-1,1.68,1.68,0,0,0-1.16-.37,2.1,2.1,0,0,0-1.07.27,1.86,1.86,0,0,0-.74.73,2.15,2.15,0,0,0-.26,1.05,1.27,1.27,0,0,0,.42,1,1.68,1.68,0,0,0,1.16.37A2.2,2.2,0,0,0,36.51,25.56Z"/><path class="cls-2" d="M41.35,21.28h1.41l-1.19,6H40.16Zm.42-1.22a.76.76,0,0,1-.24-.56.84.84,0,0,1,.27-.64.9.9,0,0,1,.69-.26.85.85,0,0,1,.61.22.7.7,0,0,1,.23.53.93.93,0,0,1-.26.68,1,1,0,0,1-.69.26A.85.85,0,0,1,41.77,20.06Z"/><path class="cls-2" d="M50.57,23.7a3.21,3.21,0,0,1-1.7,1.09l1.41,2.5H48.72L47.43,25h-2L45,27.29H43.55l1.57-7.88h3.06a3.5,3.5,0,0,1,2.21.62,2.1,2.1,0,0,1,.79,1.75A3.06,3.06,0,0,1,50.57,23.7Zm-1.45-.4a1.68,1.68,0,0,0,.58-1.38,1.1,1.1,0,0,0-.43-1A2,2,0,0,0,48,20.65H46.35l-.63,3.12h1.74A2.56,2.56,0,0,0,49.12,23.3Z"/><path class="cls-2" d="M53.07,27a2.42,2.42,0,0,1-1-.93,2.6,2.6,0,0,1-.36-1.38,3.5,3.5,0,0,1,.46-1.8,3.34,3.34,0,0,1,1.27-1.26,3.74,3.74,0,0,1,1.84-.45,3.42,3.42,0,0,1,1.54.33,2.36,2.36,0,0,1,1,.92,2.63,2.63,0,0,1,.36,1.38,3.5,3.5,0,0,1-.47,1.8,3.21,3.21,0,0,1-1.27,1.26,3.67,3.67,0,0,1-1.84.46A3.39,3.39,0,0,1,53.07,27Zm2.69-1.16a2,2,0,0,0,.74-.8,2.45,2.45,0,0,0,.27-1.16,1.47,1.47,0,0,0-.42-1.11,1.61,1.61,0,0,0-1.17-.4,2,2,0,0,0-1.06.29,2,2,0,0,0-.74.8,2.45,2.45,0,0,0-.27,1.16,1.47,1.47,0,0,0,.42,1.11,1.58,1.58,0,0,0,1.17.4A2,2,0,0,0,55.76,25.87Z"/><path class="cls-2" d="M60.33,27a2.42,2.42,0,0,1-1-.93A2.6,2.6,0,0,1,59,24.72a3.5,3.5,0,0,1,.46-1.8,3.27,3.27,0,0,1,1.27-1.26,3.74,3.74,0,0,1,1.84-.45,3.42,3.42,0,0,1,1.54.33,2.34,2.34,0,0,1,1,.92,2.63,2.63,0,0,1,.36,1.38,3.5,3.5,0,0,1-.46,1.8A3.23,3.23,0,0,1,63.7,26.9a3.62,3.62,0,0,1-1.84.46A3.38,3.38,0,0,1,60.33,27ZM63,25.87a2,2,0,0,0,.74-.8A2.45,2.45,0,0,0,64,23.91a1.47,1.47,0,0,0-.42-1.11,1.61,1.61,0,0,0-1.17-.4,2,2,0,0,0-1.8,1.09,2.45,2.45,0,0,0-.27,1.16,1.5,1.5,0,0,0,.41,1.11,1.62,1.62,0,0,0,1.18.4A2,2,0,0,0,63,25.87Z"/><path class="cls-2" d="M76.36,21.73a1.86,1.86,0,0,1,.58,1.48,3.16,3.16,0,0,1-.08.74l-.66,3.34H74.79l.67-3.3a2.42,2.42,0,0,0,0-.47q0-1.08-1.14-1.08c-1,0-1.62.57-1.85,1.72l-.63,3.13H70.47l.67-3.3a2.42,2.42,0,0,0,0-.47c0-.72-.38-1.08-1.15-1.08-1,0-1.61.57-1.84,1.73l-.63,3.12H66.15l1.19-6h1.34l-.12.65a2.76,2.76,0,0,1,2-.72,2.45,2.45,0,0,1,1.14.25,1.74,1.74,0,0,1,.73.74,3.08,3.08,0,0,1,2.37-1A2.26,2.26,0,0,1,76.36,21.73Z"/><rect class="cls-2" x="78.48" y="20.85" width="7.53" height="7.53" transform="translate(106.86 -57.63) rotate(90)"/><rect class="cls-1" x="78.48" y="11.56" width="7.53" height="7.53" transform="translate(97.57 -66.92) rotate(90)"/><rect class="cls-2" x="69.11" y="11.56" width="7.53" height="7.53" transform="translate(88.21 -57.55) rotate(90)"/></svg>